<?xml version="1.0" standalone="no"?><!DOCTYPE svg PUBLIC "-//W3C//DTD SVG 1.1//EN" "http://www.w3.org/Graphics/SVG/1.1/DTD/svg11.dtd"><svg t="1544544049111" class="icon" style="" viewBox="0 0 1024 1024" version="1.1" xmlns="http://www.w3.org/2000/svg" p-id="1808" data-spm-anchor-id="a313x.7781069.0.i10" xmlns:xlink="http://www.w3.org/1999/xlink" width="30" height="30"><defs><style type="text/css"></style></defs><path d="M756.043 717.059c67.007-70.29 101.495-152.901 100.183-249.167-0.94-69.151-18.603-133.979-58.124-191.471-92.059-133.909-237.66-177.595-354.252-152.951-0.103 2.291-0.31 4.759-0.31 7.217-0.023 251.973-0.023 503.951-0.023 755.929 0 10.629-0.001 10.629-10.688 10.629-5.806 0-11.617 0-18.156 0-9.586-95.028-19.103-189.379-28.623-283.73-0.668 0.045-1.341 0.084-2.006 0.127 0 58.511 0.027 117.025-0.006 175.535-0.023 33.121-0.318 66.242-0.105 99.361 0.042 6.541-1.604 9.443-8.516 8.783-7.029-0.669-16.617 1.94-20.48-1.727-3.725-3.542-1.934-13.268-1.947-20.276-0.423-233.371-0.772-466.746-1.132-700.121-0.006-6.606 0-13.212 0-21.653-7.22 3.938-13.317 7.264-19.829 10.813 0 125.206 0.054 250.292-0.007 375.374-0.069 115.924-0.354 231.845-0.235 347.773 0.005 8.244-2.563 10.147-10.377 9.934-19.889-0.545-19.838-0.172-19.904-19.966-0.315-89.167-0.987-178.334-0.946-267.502 0.065-135.79 0.597-271.582 0.982-407.375 0.007-5.834 0.56-11.659 0.941-19.207-4.13 2.482-7.686 4.081-10.623 6.459-38.756 31.347-72.306 67.204-96.106 111.461-22.659 42.13-37.927 86.404-42.976 134.378-4.041 38.451-2.077 76.412 6.447 113.739 3.207 14.052 1.104 23.859-8.464 33.356-2.307 2.291-3.927 5.279-7.147 9.714-3.694-11.929-8.306-22.368-10.033-33.26-4.093-25.837-8.871-51.835-9.618-77.871-1.242-43.228 5.682-85.505 19.701-126.833 16.927-49.916 41.986-94.495 76.839-134.148 18.118-20.614 38.022-38.82 59.408-55.738 27.054-21.403 57.782-35.966 89.529-48.719 50.17-20.154 102.551-28.617 156.138-24.752 29.238 2.106 58.523 8.278 86.986 15.679 63.504 16.519 115.747 52.509 162.048 98.121 20.465 20.157 38.24 42.158 52.972 66.823 22.653 37.927 39.839 78.137 48.141 121.466 4.431 23.127 5.175 46.989 6.917 70.567 2.302 31.205-1.162 62.122-8.16 92.443-3.936 17.042-10.731 33.411-16.094 50.129-8.073 25.136-19.617 48.701-34.826 70.108-13.506 19.018-28.775 36.793-43.574 54.864-1.009 1.228-5.344 1.366-6.837 0.267-5.674-4.199-10.817-9.116-17.091-14.576zM381.883 139.61c9.829 95.029 19.517 188.747 29.212 282.461 0.635-0.045 1.263-0.096 1.897-0.142 0-96.991 0-193.983 0-291.89-10.66 3.277-20.791 6.393-31.107 9.571z" p-id="1809" data-spm-anchor-id="a313x.7781069.0.i6" class="" fill="#ffffff"></path><path d="M107.009 897.232c11.377-10.559 21.353-19.842 31.361-29.099 2.236-2.077 4.949-3.761 6.807-6.117 9.17-11.625 20.305-16.5 35.561-14.155 10.384 1.594 24.201-10.151 27.835-20.242 8.045-22.334-2.634-42.327-22.174-55.33-13.759-9.159-27.651-18.139-41.781-26.706-14.548-8.828-18.562-23.081-20.057-38.288-3.328-33.854 8.114-63.903 24.452-92.802 17.079-30.207 40.305-54.795 67.819-75.319 17.582-13.121 36.877-23.434 59.012-27.070 1.104-0.182 2.258-0.023 1.465-0.023-14.473 12.315-31.227 24.006-44.798 38.654-27.333 29.499-53.193 60.588-64.505 100.417-6.316 22.241-8.085 45.026-1.137 67.691 3.333 10.886 10.785 16.96 21.819 20.044 24.045 6.718 43.604 20.846 58.996 40.105 18.235 22.816 22.999 48.636 13.931 76.768-5.302 16.445-16.737 28.195-29.39 38.954-2.077 1.767-5.681 2.429-8.581 2.435-38.18 0.151-76.369 0.102-116.639 0.102z" p-id="1810" data-spm-anchor-id="a313x.7781069.0.i15" class="" fill="#ffffff"></path><path d="M617.137 709.272c16.275 10.089 29.495 22.633 41.081 36.922 1.737 2.14 2.624 5.575 2.639 8.418 0.175 33.865 0.171 67.732-0.002 101.599-0.007 2.478-1.056 5.663-2.781 7.295-8.676 8.203-17.739 15.998-27.5 24.678-8.97-8.453-17.769-16.752-27.693-26.105-0.635 11.707-1.209 22.378-1.77 32.775-0.803 0.509-1.218 0.987-1.638 0.996-8.571 0.151-17.142 0.253-25.712 0.362-0.468-8.236-1.316-16.471-1.342-24.705-0.142-38.449-0.19-76.902 0.159-115.348 0.037-3.691 2.148-8.3 4.842-10.861 12.882-12.258 26.292-23.959 39.718-36.032zM604.842 850.86c7.222 0.412 14.029 1.218 20.788 0.905 1.607-0.075 4.345-3.865 4.366-5.97 0.291-28.963 0.090-57.927 0.304-86.894 0.037-4.81-2.158-6.569-6.191-6.51-6.294 0.096-12.586 0.677-19.263 1.076 0 32.547 0 64.484 0 97.396z" p-id="1811" data-spm-anchor-id="a313x.7781069.0.i7" class="" fill="#ffffff"></path><path d="M507.792 709.749c13.648 12.284 27.326 24.442 40.748 36.882 1.57 1.455 2.383 4.458 2.393 6.746 0.154 30.567 0.15 61.135 0.027 91.702-0.007 2.385-0.451 5.486-1.952 7.046-13.568 14.119-27.404 27.978-41.212 41.859-0.849 0.854-2.135 1.27-3.538 2.079-12.912-12.878-25.771-25.538-38.349-38.467-1.516-1.553-2.113-4.564-2.145-6.911-0.45-31.839-0.803-63.673-0.906-95.511-0.005-2.693 1.213-6.201 3.121-7.959 13.623-12.575 27.58-24.794 41.811-37.473zM493.561 848.544c9.735 0 17.949 0 26.217 0 0-31.924 0-63.1 0-94.561-9.194 0-17.889 0-26.217 0 0 31.815 0 62.991 0 94.561z" p-id="1812" data-spm-anchor-id="a313x.7781069.0.i5" class="" fill="#ffffff"></path><path d="M766.375 752.825c-17.459 0-34.919 0-52.811 0 0 12.592 0 23.946 0 36.31 17.794 0 35.46 0 53.663 0 0 11.508 0 22.021 0 33.407-17.842 0-35.535 0-53.636 0 0 11.663 0 22.457 0 34.188 17.586 0 34.715 0 54.129 0-15.615 14.094-29.486 26.618-43.714 39.463-13.558-11.867-26.866-23.326-39.861-35.116-1.754-1.586-2.738-4.875-2.755-7.379-0.182-32.61-0.171-65.227-0.031-97.83 0.005-2.319 0.727-5.335 2.271-6.843 13.089-12.811 26.448-25.346 40.348-38.558 14.581 13.502 28.873 26.731 43.165 39.961-0.253 0.801-0.509 1.606-0.762 2.405z" p-id="1813" data-spm-anchor-id="a313x.7781069.0.i21" class="" fill="#ffffff"></path><path d="M845.765 855.042c0-11.442 0-22.077 0-33.225 8.548 0 16.542 0 25.551 0 0 10.438 0.070 20.788-0.084 31.135-0.023 1.342-0.911 2.973-1.909 3.949-11.977 11.742-24.213 23.221-36.016 35.133-5.495 5.548-9.177 4.605-14.307-0.77-8.057-8.444-17.294-15.75-25.52-24.046-2.356-2.37-4.163-6.464-4.193-9.782-0.298-33.097-0.235-66.197-0.070-99.293 0.007-2.835 0.581-6.531 2.385-8.346 11.821-11.901 24.051-23.393 36.817-35.664 2.575 2.222 5.059 4.221 7.378 6.401 6.678 6.278 12.549 13.759 20.085 18.711 17.705 11.634 15.097 29.143 15.148 46.087 0.007 4.401-1.733 6.967-6.962 6.521-5.759-0.499-11.595-0.116-18.157-0.116 0-11.808 0-22.886 0-34.623-9.21 0-17.647 0-26.941 0 0 3.484 0 6.743 0 10.001 0.007 27.244 0.207 54.487-0.102 81.73-0.075 6.7 2.329 8.485 8.526 7.626 5.732-0.788 11.555-0.925 18.377-1.43z" p-id="1814" fill="#ffffff"></path><path d="M191.22 639.802c3.638 4.989 6.812 9.17 9.81 13.477 12.064 17.338 23.132 35.477 36.402 51.838 11.129 13.722 24.944 25.242 37.241 38.061 2.519 2.619 4.755 6.569 5.041 10.073 0.714 8.805 0.236 17.705 0.236 28.162-3.59-2.327-6.246-3.653-8.428-5.523-29.25-25.060-56.988-51.532-78.055-84.18-0.551-0.855-1.081-1.727-1.695-2.542-13.807-18.23-14.1-27.721-0.547-49.36z" p-id="1815" data-spm-anchor-id="a313x.7781069.0.i16" class="" fill="#ffffff"></path><path d="M489.069 466.658c-10.177 4.21-17.653 9.695-21.402 19.843-0.995 2.695-5.411 6.877-5.967 6.546-4.14-2.471-7.839-5.691-5.686-11.69 1.362-3.804 1.458-8.127 3.164-11.724 2.138-4.517 5.34-8.53 8.97-14.126 2.378 4.539 3.625 6.913 4.874 9.285 0.517-0.066 1.011-0.025 1.417-0.194 14.871-6.145 19.444-17.478 17.062-32.775-0.687-4.427-0.236-9.191 0.599-13.63 0.37-1.95 3.008-3.474 4.619-5.193 1.11 1.963 3.179 3.918 3.179 5.87-0.004 7.851-0.493 15.717-1.11 23.556-0.558 7.021 2.987 8.304 8.913 7.234 3.982-0.721 8.085-1.675 12.039-1.362 3.949 0.31 10.32-0.116 9.596 5.888-0.468 3.956-4.527 7.623-7.379 11.086-0.99 1.201-3.266 1.286-4.846 2.094-7.051 3.6-8.291 7.217-4.994 14.477 1.423 3.137 2.271 5.577-2.591 6.606-13.926 2.939-15.782 7.378-14.849 21.825 1.021 15.9-0.005 31.931-0.377 47.902-0.027 1.188-1.909 2.337-2.93 3.509-1.047-1.697-2.966-3.378-3.007-5.1-0.27-11.707-0.142-23.418-0.144-35.123-0.001-5.601-0.058-11.202 0.004-16.8 0.048-4.329 0.291-7.57-5.462-9.794-5.605-2.163-2.965-6.803 0.933-10.062 6.62-5.541 7.3-7.83 5.382-18.153z" p-id="1816" data-spm-anchor-id="a313x.7781069.0.i12" class="" fill="#ffffff"></path><path d="M656.484 462.557c-2.422 6.325-4.25 10.918-5.937 15.571-2.969 8.214-0.848 8.941 7.264 10.855 11.895 2.81 20.602-3.102 30.345-6.988 1.959-0.78 4.478-0.154 6.734-0.175-0.119 2.583-0.199 5.185-0.395 7.772-0.031 0.434-0.543 0.841-0.832 1.258-7.83 11.045-7.83 11.045 1.871 20.97-7.811 2.666-14.897 5.785-22.311 7.353-4.784 1.011-6.805-3.7-3.994-8.225 0.934-1.5 2.243-2.766 3.266-4.217 0.849-1.2 1.541-2.513 2.619-4.308-6.13-3.903-11.885-2.409-17.375-0.025-1.019 0.439-1.511 3.526-1.249 5.23 0.78 5.004 0.307 9.781-4.956 11.343-4.998 1.485-10.813 2.209-12.772-6.183-15.315 24.337-26.594 50.309-48.215 68.671-0.746-0.468-1.498-0.925-2.246-1.396 1.526-2.61 2.898-5.322 4.595-7.813 15.125-22.236 32.513-43.13 41.529-69.017 3.333-9.574 6.459-19.257 9.033-29.057 1.617-6.169 5.2-9.394 13.022-11.612z" p-id="1817" data-spm-anchor-id="a313x.7781069.0.i14" class="" fill="#ffffff"></path><path d="M836.075 446.422c0.699 2.913 1.49 5.804 2.069 8.735 1.436 7.36 2.987 14.713 4.034 22.137 0.357 2.525 0.161 5.773-1.153 7.787-15.362 23.51-36.78 34.137-64.982 29.811-2.006-0.306-4.015-0.597-6.015-0.832-7.883-0.924-10.737-3.956-10.842-11.847-0.091-6.59-0.007-13.187-0.007-19.838-2.871-0.94-5.205-1.705-7.421-2.429-0.119-0.783-0.412-1.577-0.237-1.697 7.205-4.956 12.815-10.047 12.743-20.433-0.045-6.313 7.588-6.569 13.773-0.489 8.745-1.423 12.822-16.179 26.561-8.139-8.018 6.738-14.971 13.657-22.971 19.013-9.443 6.316-14.765 16.519-9.945 26.721 2.155 4.555 8.113 8.785 13.181 10.225 17.193 4.881 32.106-0.509 43.965-13.595 2.063-2.271 2.766-6.387 2.892-9.698 0.372-9.834 0.058-19.698 0.222-29.548 0.031-1.947 0.995-3.872 1.533-5.813 0.875-0.025 1.748-0.048 2.624-0.074z" p-id="1818" data-spm-anchor-id="a313x.7781069.0.i19" class="" fill="#ffffff"></path><path d="M581.469 512.123c0.203 3.362 1.84 8.415 0.304 9.714-2.65 2.236-7.274 2.858-11.063 2.833-5.267-0.039-10.542-1.201-15.775-2.112-1.541-0.27-4.247-1.392-4.201-1.952 0.133-1.763 0.905-3.894 2.179-5.067 3.542-3.252 7.716-5.824 11.183-9.149 6.889-6.61 9.404-14.331 3.805-24.351-3.314 4.247-6.455 8.276-10.467 13.414 3.753-0.222 6.011-0.362 8.453-0.51-3.542 7.542-13.596 12.983-23.613 11.673 4.084-5.089 8.871-8.902 10.55-13.787 1.553-4.501-0.235-10.151-0.627-16.516-0.681-0.371-2.582-1.392-4.769-2.58 0.681-10.698 11.468-5.531 15.981-9.731-0.217-3.261-0.412-6.214-0.733-10.988 9.574 7.961 12.842 16.701 12.527 28.538 3.659-3.366 5.785-5.327 9.675-8.909-0.513 4.034 0 6.874-1.171 8.102-8.506 8.912-3.825 17.042 0.907 25.34 2.058 3.611 3.328 7.097-3.314 6.211-2.169-3.882-4.334-7.771-7.11-12.743-2.755 4.682-4.868 8.267-7.395 12.566 5.613-0.002 10.14-0.002 14.676-0.002z" p-id="1819" data-spm-anchor-id="a313x.7781069.0.i11" class="" fill="#ffffff"></path><path d="M584.063 520.647c12.663-6.304 14.274-11.391 12.038-24.065-1.927-10.935-2.115-22.177-3.044-33.291-1.485-17.691-8.859-21.996-25.867-15.371-5.147 2.002-10.542 3.366-17.423 5.523 0.878-3.391 0.849-4.884 1.392-5.131 11.947-5.36 22.457-14.641 37.353-11.47 14.307 3.044 14.992 3.639 16.022 18.822 0.803 11.859 2.857 23.636 4.227 35.46 0.253 2.188 0.324 4.556-0.253 6.643-1.963 7.089-3.71 14.313-6.595 21.030-1.813 4.228-5.514 7.659-8.366 11.439-3.062-3.099-6.123-6.197-9.477-9.596z" p-id="1820" data-spm-anchor-id="a313x.7781069.0.i8" class="" fill="#ffffff"></path><path d="M720.538 511.403c3.236-5.149 7.562-9.794 9.185-15.244 1.566-5.274 0.336-11.364 0.336-18.922-8.093 5.428-13.101 16.143-23.989 8.332 0.849-1.365 1.332-3.271 2.385-3.667 14.047-5.298 19.268-18.752 27.659-29.309 2.409-3.034 5.613-5.57 8.851-7.733 1.061-0.705 3.385 0.484 5.132 0.804-0.546 1.526-0.677 3.467-1.707 4.502-3.748 3.743-8.078 6.918-11.658 10.799-3.71 4.023-2.866 7.921-1.218 13.523 2.857 9.728 3.29 20.56 2.633 30.785-0.381 5.93-9.611 8.492-17.611 6.124z" p-id="1821" data-spm-anchor-id="a313x.7781069.0.i20" class="" fill="#ffffff"></path><path d="M644.034 448.985c5.34-2.145 9.529-4.543 14.044-5.482 8.397-1.763 16.948-3.022 25.499-3.809 4.034-0.371 6.944 2.673 3.753 6.223-3.526 3.918-8.105 7.919-12.975 9.376-10.073 3.008-20.902 5.771-30.315-6.302z" p-id="1822" data-spm-anchor-id="a313x.7781069.0.i18" class="" fill="#ffffff"></path><path d="M530.218 518.745c-0.412-5.17-1.532-9.443-0.934-13.465 1.575-10.66 3.852-21.219 5.951-31.801 0.447-2.256 1.334-4.428 2.268-7.434 7.739 11.516 3.412 47.267-7.284 52.708z" p-id="1823" data-spm-anchor-id="a313x.7781069.0.i13" class="" fill="#ffffff"></path><path d="M577.004 450.935c2.256 2.405 4.621 4.73 6.606 7.335 0.212 0.279-1.733 2.209-2.673 3.374-2.383-2.572-4.759-5.147-7.139-7.725 1.066-0.997 2.135-1.996 3.203-2.99z" p-id="1824" data-spm-anchor-id="a313x.7781069.0.i22" class="" fill="#ffffff"></path></svg>