<?xml version="1.0" standalone="no"?><!DOCTYPE svg PUBLIC "-//W3C//DTD SVG 1.1//EN" "http://www.w3.org/Graphics/SVG/1.1/DTD/svg11.dtd"><svg t="1544521678551" class="icon" style="" viewBox="0 0 1024 1024" version="1.1" xmlns="http://www.w3.org/2000/svg" p-id="836" xmlns:xlink="http://www.w3.org/1999/xlink" width="40" height="40"><defs><style type="text/css"></style></defs><path d="M978.389333 908.501333v-368.64a85.76 85.76 0 0 0-79.872-85.504V404.778667h19.626667v-40.149334h-19.626667V85.845333l-32.469333-32.426666h-187.008l-29.226667 29.269333v73.344a89.386667 89.386667 0 0 0-74.88 88.149333v337.066667h-34.986666l-5.76-5.76V172.672l-28.885334-28.885333H272.896l-30.122667 30.122666v185.429334a202.112 202.112 0 0 0-190.890666 201.770666v347.434667H0v62.08h1024v-62.08h-45.610667zM126.677333 583.68v324.821333h-21.930666V583.68c0-88.832 57.173333-128 59.648-129.621333l6.101333 9.130666 6.101333 9.088c-2.048 1.365333-49.92 34.730667-49.92 111.402667z m329.813334 324.821333V561.066667a202.154667 202.154667 0 0 0-191.829334-201.813334V182.997333l17.322667-17.28h214.229333l16.042667 16.042667v402.816l18.602667 18.517333h44.074666v305.408h-118.442666z m164.096-141.397333c0 3.584-2.816 6.4-6.357334 6.4s-6.357333-2.816-6.357333-6.4V250.581333a6.357333 6.357333 0 1 1 12.714667 0v516.522667z m186.197333 141.397333h-52.949333V244.181333c0-46.933333-36.181333-85.333333-82.133334-89.045333V91.733333l16.426667-16.384h168.874667l19.584 19.584v269.696h-27.818667v40.149334h27.818667v50.816a85.76 85.76 0 0 0-69.802667 84.266666v368.64z m34.133333-356.778666v295.594666h-9.728v-295.594666c0-39.253333 25.301333-56.576 26.368-57.301334l5.376 8.064-2.688-4.010666 2.688 4.010666c-0.853333 0.597333-22.016 15.36-22.016 49.237334z" fill="#4f68b0" p-id="837"></path></svg>